<svg width="1304" height="954" viewBox="0 0 1304 954" fill="none" xmlns="http://www.w3.org/2000/svg">
<path d="M217.032 873H160.115V773.844H75.7998V873H18.5566V635.547H75.7998V729.811H160.115V635.547H217.032V873ZM314.395 873H257.314V635.547H314.395V873ZM442.417 789.174H411.431V873H354.188V635.547H447.636C475.795 635.547 497.812 641.799 513.686 654.302C529.559 666.805 537.496 684.473 537.496 707.305C537.496 723.831 534.126 737.53 527.385 748.402C520.753 759.275 510.315 768.081 496.072 774.822L545.65 870.554V873H484.33L442.417 789.174ZM411.431 744.978H447.636C458.508 744.978 466.662 742.151 472.099 736.497C477.644 730.735 480.416 722.743 480.416 712.523C480.416 702.303 477.644 694.312 472.099 688.55C466.554 682.679 458.399 679.743 447.636 679.743H411.431V744.978ZM719.337 772.376H629.313V828.967H735.646V873H572.07V635.547H735.972V679.743H629.313V729.811H719.337V772.376ZM917.323 635.547L970.326 800.753L1023.17 635.547H1098.51V873H1041.11V817.551L1046.65 704.043L989.244 873H951.408L893.839 703.88L899.384 817.551V873H842.141V635.547H917.323ZM1282.31 772.376H1192.29V828.967H1298.62V873H1135.04V635.547H1298.94V679.743H1192.29V729.811H1282.31V772.376Z" fill="white" fill-opacity="0.13"/>
<path d="M217.032 587H160.115V487.844H75.7998V587H18.5566V349.547H75.7998V443.811H160.115V349.547H217.032V587ZM314.395 587H257.314V349.547H314.395V587ZM442.417 503.174H411.431V587H354.188V349.547H447.636C475.795 349.547 497.812 355.799 513.686 368.302C529.559 380.805 537.496 398.473 537.496 421.305C537.496 437.831 534.126 451.53 527.385 462.402C520.753 473.275 510.315 482.081 496.072 488.822L545.65 584.554V587H484.33L442.417 503.174ZM411.431 458.978H447.636C458.508 458.978 466.662 456.151 472.099 450.497C477.644 444.735 480.416 436.743 480.416 426.523C480.416 416.303 477.644 408.312 472.099 402.55C466.554 396.679 458.399 393.743 447.636 393.743H411.431V458.978ZM719.337 486.376H629.313V542.967H735.646V587H572.07V349.547H735.972V393.743H629.313V443.811H719.337V486.376ZM917.323 349.547L970.326 514.753L1023.17 349.547H1098.51V587H1041.11V531.551L1046.65 418.043L989.244 587H951.408L893.839 417.88L899.384 531.551V587H842.141V349.547H917.323ZM1282.31 486.376H1192.29V542.967H1298.62V587H1135.04V349.547H1298.94V393.743H1192.29V443.811H1282.31V486.376Z" fill="white" fill-opacity="0.13"/>
<path d="M217.032 310H160.115V210.844H75.7998V310H18.5566V72.5469H75.7998V166.811H160.115V72.5469H217.032V310ZM314.395 310H257.314V72.5469H314.395V310ZM442.417 226.174H411.431V310H354.188V72.5469H447.636C475.795 72.5469 497.812 78.7985 513.686 91.3018C529.559 103.805 537.496 121.473 537.496 144.305C537.496 160.831 534.126 174.53 527.385 185.402C520.753 196.275 510.315 205.081 496.072 211.822L545.65 307.554V310H484.33L442.417 226.174ZM411.431 181.978H447.636C458.508 181.978 466.662 179.151 472.099 173.497C477.644 167.735 480.416 159.743 480.416 149.523C480.416 139.303 477.644 131.312 472.099 125.55C466.554 119.679 458.399 116.743 447.636 116.743H411.431V181.978ZM719.337 209.376H629.313V265.967H735.646V310H572.07V72.5469H735.972V116.743H629.313V166.811H719.337V209.376ZM917.323 72.5469L970.326 237.753L1023.17 72.5469H1098.51V310H1041.11V254.551L1046.65 141.043L989.244 310H951.408L893.839 140.88L899.384 254.551V310H842.141V72.5469H917.323ZM1282.31 209.376H1192.29V265.967H1298.62V310H1135.04V72.5469H1298.94V116.743H1192.29V166.811H1282.31V209.376Z" fill="white" fill-opacity="0.13"/>
</svg>
