<svg width="1115" height="662" viewBox="0 0 1115 662" fill="none" xmlns="http://www.w3.org/2000/svg">
<path d="M737.828 557.453L770.017 637.003L674.563 615.435L737.828 557.453Z" fill="white" fill-opacity="0.2">

</path>
<path d="M1034.43 117.151L1087.87 126.669L1100.47 171.948L1059.64 207.708L1006.2 198.19L993.594 152.911L1034.43 117.151Z" fill="white" fill-opacity="0.2">

</path>
<path d="M95.3311 125.119L131.686 169.552L111.191 221.991L54.3411 229.997L17.9863 185.564L38.4813 133.124L95.3311 125.119Z" fill="white" fill-opacity="0.2"/>
<path d="M348.463 24.2562L376.091 49.488L412.028 30.4117L393.166 65.082L420.794 90.3138L381.509 86.5095L362.647 121.18L357.229 84.1583L317.944 80.354L353.881 61.2777L348.463 24.2562Z" fill="white" fill-opacity="0.2"/>
<path d="M496.121 232.266L538.44 258.316L488.002 281.293L496.121 232.266Z" fill="white" fill-opacity="0.2"/>
</svg>
