<svg width="61" height="185" viewBox="0 0 61 185" fill="none" xmlns="http://www.w3.org/2000/svg">
<rect width="59" height="185" fill="#F4D459"/>
<path d="M12.0094 138.782L17.0417 143.378L23.5874 139.904L20.1518 146.219L25.184 150.814L18.0284 150.121L14.5928 156.436L13.606 149.693L6.45046 149L12.9962 145.526L12.0094 138.782Z" fill="white" fill-opacity="0.2"/>
<path d="M50.1664 156.997L47.4295 163.238L52.8217 168.322L45.738 167.096L43.0011 173.337L41.36 166.338L34.2763 165.112L40.3458 162.012L38.7047 155.013L44.0969 160.097L50.1664 156.997Z" fill="white" fill-opacity="0.2"/>
<path d="M46.046 4.13618L46.2523 12.9386L55.343 15.9437L46.3798 18.3788L46.5861 27.1813L40.8403 19.8838L31.8771 22.3189L37.2891 15.3737L31.5432 8.07626L40.6339 11.0814L46.046 4.13618Z" fill="white" fill-opacity="0.2"/>
<path d="M42.7182 100.438L44.0802 107.116L51.4169 108.161L44.9219 111.243L46.2839 117.921L40.9078 113.148L34.4129 116.23L37.5852 110.198L32.2092 105.425L39.5459 106.47L42.7182 100.438Z" fill="white" fill-opacity="0.2"/>
<path d="M16.7182 21.4385L18.0802 28.116L25.4169 29.1611L18.9219 32.243L20.2839 38.9206L14.9078 34.1477L8.41285 37.2296L11.5852 31.1979L6.20915 26.425L13.5459 27.4701L16.7182 21.4385Z" fill="white" fill-opacity="0.2"/>
<path d="M32.2756 43.3708L40.5238 49.8456L50.1691 43.7639L45.6215 53.8473L53.8696 60.3221L42.8109 60.0792L38.2632 70.1625L35.9761 59.929L24.9174 59.686L34.5627 53.6043L32.2756 43.3708Z" fill="white" fill-opacity="0.2"/>
<path d="M18.5077 74.1832L22.2091 83.2067L32.8034 82.713L24.4968 88.7836L28.1982 97.8071L19.363 92.5354L11.0565 98.606L13.9026 89.2773L5.06737 84.0057L15.6616 83.5119L18.5077 74.1832Z" fill="white" fill-opacity="0.2"/>
</svg>
